<svg width="183" height="172" viewBox="0 0 183 172" fill="none" xmlns="http://www.w3.org/2000/svg">
<path d="M91.5 150.312C107.377 150.312 122.762 145.177 135.035 135.782C147.308 126.387 155.709 113.312 158.806 98.787C161.904 84.2615 159.506 69.1837 152.022 56.1224C144.538 43.0612 132.43 32.8247 117.762 27.1572C103.093 21.4896 86.7723 20.7417 71.5792 25.0408C56.3861 29.3399 43.2611 38.4201 34.4404 50.7341C25.6198 63.0482 21.6493 77.8342 23.2054 92.5729C24.7616 107.312 31.7482 121.091 42.9748 131.563" stroke="#3AB046" stroke-width="12" stroke-linecap="round"/>
<path d="M122 72.0731L85.2364 113.225C84.5958 113.942 84.2755 114.301 83.8555 114.32C83.4354 114.339 83.0838 114.011 82.3807 113.355L61 93.4111" stroke="#3AB046" stroke-width="13" stroke-linecap="round"/>
</svg>
