<svg width="169" height="151" viewBox="0 0 169 151" fill="none" xmlns="http://www.w3.org/2000/svg">
<path d="M84.5 132.125C76.1775 132.125 67.9364 130.66 60.2474 127.815C52.5584 124.969 45.572 120.798 39.6871 115.54C33.8022 110.282 29.134 104.04 25.9491 97.1694C22.7642 90.2994 21.125 82.9361 21.125 75.5C21.125 68.0639 22.7642 60.7006 25.9491 53.8305C29.134 46.9605 33.8022 40.7182 39.6871 35.4601C45.572 30.202 52.5584 26.031 60.2474 23.1853C67.9365 20.3396 76.1775 18.875 84.5 18.875C92.8225 18.875 101.064 20.3397 108.753 23.1853C116.442 26.031 123.428 30.202 129.313 35.4601C135.198 40.7182 139.866 46.9605 143.051 53.8306C146.236 60.7006 147.875 68.0639 147.875 75.5C147.875 82.9361 146.236 90.2994 143.051 97.1695C139.866 104.04 135.198 110.282 129.313 115.54C123.428 120.798 116.442 124.969 108.753 127.815C101.064 130.66 92.8225 132.125 84.5 132.125L84.5 132.125Z" stroke="#EE2225" stroke-width="13" stroke-linecap="round"/>
<path d="M63.375 56.625L105.625 94.375" stroke="#EE2225" stroke-width="10" stroke-linecap="round"/>
<path d="M105.625 56.625L63.375 94.375" stroke="#EE2225" stroke-width="10" stroke-linecap="round"/>
</svg>
