<svg width="70" height="80" viewBox="0 0 70 80" fill="none" xmlns="http://www.w3.org/2000/svg">
<rect x="8.75" y="20" width="52.5" height="50" rx="2" stroke="#5D5FEF" stroke-width="2"/>
<path d="M8.75 24C8.75 22.1144 8.75 21.1716 9.33579 20.5858C9.92157 20 10.8644 20 12.75 20H57.25C59.1356 20 60.0784 20 60.6642 20.5858C61.25 21.1716 61.25 22.1144 61.25 24V33.3333H8.75V24Z" fill="#5D5FEF"/>
<path d="M20.4165 10L20.4165 20" stroke="#5D5FEF" stroke-width="2" stroke-linecap="round"/>
<path d="M49.5835 10L49.5835 20" stroke="#5D5FEF" stroke-width="2" stroke-linecap="round"/>
<rect x="20.4165" y="40" width="11.6667" height="6.66667" rx="0.5" fill="#5D5FEF"/>
<rect x="20.4165" y="53.3333" width="11.6667" height="6.66667" rx="0.5" fill="#5D5FEF"/>
<rect x="37.9165" y="40" width="11.6667" height="6.66667" rx="0.5" fill="#5D5FEF"/>
<rect x="37.9165" y="53.3333" width="11.6667" height="6.66667" rx="0.5" fill="#5D5FEF"/>
</svg>
