<svg width="84" height="75" viewBox="0 0 84 75" fill="none" xmlns="http://www.w3.org/2000/svg">
<path d="M83.2333 27.7377H58.826C58.4065 27.7377 58.0633 28.0809 58.0633 28.5004V33.0768C58.0633 33.4963 58.4065 33.8395 58.826 33.8395H83.2333C83.6528 33.8395 83.996 33.4963 83.996 33.0768V28.5004C83.996 28.0809 83.6528 27.7377 83.2333 27.7377ZM70.4576 40.704H58.826C58.4065 40.704 58.0633 41.0473 58.0633 41.4668V46.0431C58.0633 46.4626 58.4065 46.8058 58.826 46.8058H70.4576C70.8771 46.8058 71.2204 46.4626 71.2204 46.0431V41.4668C71.2204 41.0473 70.8771 40.704 70.4576 40.704ZM38.6424 19.2047H34.5141C33.923 19.2047 33.4463 19.6814 33.4463 20.2725V43.917C33.4463 44.2602 33.6084 44.5749 33.8849 44.7751L48.0811 55.1291C48.5578 55.4723 49.2252 55.377 49.5684 54.9003L52.0187 51.5538V51.5443C52.3619 51.0676 52.257 50.4002 51.7803 50.057L39.7007 41.3237V20.2725C39.7102 19.6814 39.2239 19.2047 38.6424 19.2047Z" fill="#555555"/>
<path d="M69.8659 52.7074H64.3552C63.8213 52.7074 63.3159 52.9838 63.0299 53.4415C61.8191 55.3578 60.408 57.1312 58.7873 58.752C55.9938 61.5455 52.7426 63.7383 49.1292 65.2637C45.3823 66.8464 41.4066 67.6473 37.3069 67.6473C33.1978 67.6473 29.222 66.8464 25.4847 65.2637C21.8713 63.7383 18.6201 61.5455 15.8267 58.752C13.0332 55.9585 10.8403 52.7074 9.31487 49.0939C7.73221 45.3566 6.93135 41.3809 6.93135 37.2717C6.93135 33.1625 7.73221 29.1963 9.31487 25.4494C10.8403 21.836 13.0332 18.5849 15.8267 15.7914C18.6201 12.9979 21.8713 10.805 25.4847 9.27958C29.222 7.69692 33.2073 6.89605 37.3069 6.89605C41.4161 6.89605 45.3919 7.69692 49.1292 9.27958C52.7426 10.805 55.9938 12.9979 58.7873 15.7914C60.408 17.4122 61.8191 19.1855 63.0299 21.1018C63.3159 21.5595 63.8213 21.836 64.3552 21.836H69.8659C70.5237 21.836 70.9432 21.1495 70.6477 20.5679C64.4314 8.20222 51.8274 0.164988 37.7551 0.00290815C17.1519 -0.254512 0.0382015 16.6113 6.51351e-05 37.1954C-0.0380712 57.8176 16.6752 74.5499 37.2974 74.5499C51.5509 74.5499 64.3647 66.4841 70.6477 53.9754C70.9432 53.3938 70.5142 52.7074 69.8659 52.7074Z" fill="#555555"/>
</svg>
