<svg width="209" height="105" viewBox="0 0 209 105" fill="none" xmlns="http://www.w3.org/2000/svg">
<path d="M170.059 34.1388C169.798 33.1423 169.293 32.3988 169.033 31.4023C168.782 31.1554 168.776 30.6556 168.525 30.4088C167.264 28.6748 166.259 27.6874 164.508 26.4593C163.507 25.7217 162.012 25.2401 160.766 24.7555C160.517 24.7585 160.018 24.5148 159.77 24.5178C158.775 24.28 157.782 24.2921 156.79 24.3042C156.542 24.3072 156.046 24.3133 155.798 24.3163C154.805 24.3284 153.816 24.5904 152.826 24.8524C151.589 25.1175 150.354 25.6323 149.371 26.3941C148.881 26.8999 148.388 27.1558 147.897 27.6616C147.162 28.4203 146.675 29.176 146.439 30.1786C146.197 30.6814 145.958 31.4341 145.967 32.1838C145.731 33.1863 145.742 34.1857 146.251 35.1792C146.511 36.1756 146.768 36.9223 147.273 37.6658L147.524 37.9128C147.536 38.9123 147.793 39.6589 148.05 40.4055C148.304 40.9022 148.307 41.152 148.558 41.3989C148.827 43.145 149.838 44.6322 151.093 45.8665C152.348 47.1007 154.1 48.3289 155.839 48.5575C157.83 49.0331 159.567 49.0119 161.546 48.4879C162.535 48.2259 163.273 47.717 164.015 47.458C164.26 47.2051 164.756 47.1992 165.001 46.9463C165.739 46.4374 166.478 45.9285 167.213 45.1698C167.948 44.4111 168.435 43.6553 168.923 42.8997C169.655 41.8911 170.136 40.6357 170.617 39.3803C170.599 37.881 170.582 36.3816 170.059 34.1388Z" fill="#E7E4E3"/>
<path d="M208.333 80.9051C208.076 80.1585 207.819 79.4118 207.314 78.6682C207.311 78.4183 207.311 78.4183 207.308 78.1684C207.048 77.172 206.54 76.1786 206.282 75.432C205.774 74.4385 205.021 73.698 204.516 72.9544C203.006 71.2234 200.762 70.2511 198.52 69.5287C194.784 68.3248 190.575 69.126 186.863 69.9211C185.38 70.439 184.146 70.9538 183.168 72.2153C182.433 72.974 181.701 73.9827 181.465 74.9852C180.98 75.9908 180.744 76.9933 180.759 78.2427C180.777 79.742 181.291 81.2352 182.05 82.4755C182.301 82.7224 182.305 82.9722 182.559 83.4689C183.064 84.2125 183.82 85.2029 184.573 85.9434C185.326 86.684 186.077 87.1748 187.078 87.9123C187.329 88.1591 187.577 88.156 187.828 88.4028C187.828 88.4028 188.076 88.3999 188.079 88.6498C189.093 90.3868 190.348 91.621 191.849 92.6023C192.599 93.093 193.346 93.3338 194.093 93.5746C194.593 93.8184 195.089 93.8123 195.585 93.8063C197.076 94.038 198.069 94.0259 199.551 93.508C202.023 92.7281 203.987 90.9547 205.452 88.9375C205.697 88.6846 205.939 88.1818 205.936 87.9319C208.141 85.6557 208.856 83.1479 208.333 80.9051Z" fill="#E7E4E3"/>
<path d="M148.418 91.8831C148.639 89.6312 147.617 87.1446 146.108 85.4136C146.108 85.4136 146.108 85.4135 145.857 85.1667C145.605 84.9198 145.103 84.4262 144.604 84.1824C143.848 83.192 143.092 82.2015 142.093 81.7139C141.842 81.4671 141.594 81.4701 141.095 81.2262C140.844 80.9794 140.593 80.7326 140.342 80.4857C138.091 79.0137 134.866 79.0531 132.651 80.5796C130.929 81.8502 129.458 83.3677 128.989 85.6226C128.511 87.1279 128.78 88.874 129.294 90.3672C129.297 90.617 129.3 90.867 129.303 91.1169C129.33 93.3658 130.6 95.8494 132.848 97.0715C133.846 97.5591 134.845 98.0468 135.84 98.2845C136.836 98.5223 137.828 98.5102 138.823 98.748C138.823 98.748 138.823 98.748 139.071 98.7449C139.319 98.7419 139.323 98.9917 139.571 98.9887C140.318 99.2295 141.065 99.4703 141.81 99.4612C142.802 99.4491 144.039 99.1841 144.778 98.6753C145.271 98.4193 145.764 98.1633 146.006 97.6606C146.995 97.3986 147.976 96.387 148.212 95.3845C148.209 95.1346 148.206 94.8848 148.203 94.6349C148.194 93.8852 148.43 92.8826 148.418 91.8831Z" fill="#E7E4E3"/>
<path d="M79.4691 32.2459C78.4648 31.2585 77.2124 30.2741 75.7179 29.7925C74.7195 29.3049 73.7211 28.8173 72.4776 28.5825C71.4823 28.3448 70.2391 28.1102 68.9986 28.1253C68.5024 28.1314 68.0061 28.1374 67.2618 28.1465C66.0213 28.1616 64.7838 28.4265 63.7944 28.6885C61.3225 29.4685 59.1137 31.4948 58.4024 34.2525C58.1692 35.5049 58.1872 37.0043 58.4502 38.2507C58.7133 39.497 59.4726 40.7372 60.4769 41.7246C61.2332 42.715 62.2374 43.7025 63.4868 44.437C64.4881 45.1745 65.4896 45.912 66.739 46.6465C68.2365 47.3779 69.7309 47.8596 71.2224 48.0913C72.2178 48.3291 72.962 48.3199 73.9543 48.3078C74.2024 48.3048 74.6987 48.2987 74.9468 48.2957C75.691 48.2866 76.4354 48.2776 77.1766 48.0186C77.4247 48.0156 77.6729 48.0125 78.1691 48.0065C79.4095 47.9913 80.3987 47.7293 81.3821 46.9675C83.3519 45.6939 84.5685 43.6797 84.5416 41.4308C84.9929 37.6766 82.4701 34.2086 79.4691 32.2459Z" fill="#E7E4E3"/>
<path d="M120.638 30.4934C120.375 29.247 119.863 28.0037 119.104 26.7634C119.098 26.2636 119.092 25.764 119.086 25.2642C119.083 25.0143 119.077 24.5145 119.322 24.2616C119.31 23.2621 119.048 22.0158 118.542 21.2723C118.285 20.5257 118.031 20.0289 117.529 19.5352C117.024 18.7916 116.271 18.0511 115.272 17.5635C114.268 16.5761 113.263 15.5886 112.011 14.6043C111.013 14.1166 110.014 13.6289 109.016 13.1413C108.517 12.8974 108.021 12.9036 107.522 12.6598C106.526 12.422 105.283 12.1872 104.293 12.4492C103.053 12.4644 102.067 12.9763 101.08 13.4882C100.59 13.994 99.8516 14.5028 99.3584 14.7588C98.6231 15.5175 97.8909 16.526 97.6548 17.5286C97.4127 18.0313 97.1734 18.784 97.1793 19.2838C96.6891 19.7896 96.447 20.2923 95.9568 20.7981C95.4666 21.304 95.2248 21.8068 94.9826 22.3096C94.2593 24.0679 93.7838 25.8231 93.5596 27.8251C93.5836 29.8242 94.1009 31.5672 95.1172 33.5541C95.3683 33.801 95.3742 34.3006 95.6252 34.5475C96.1304 35.2911 96.8865 36.2816 97.3887 36.7753C98.8952 38.2564 100.393 38.9878 102.386 39.7132C103.382 39.951 104.377 40.1888 105.37 40.1767C106.362 40.1646 107.599 39.8995 108.592 39.8873C109.088 39.8813 109.333 39.6284 109.581 39.6254C110.322 39.3664 111.309 38.8545 112.05 38.5955L112.298 38.5925C113.048 39.0832 113.793 39.0741 114.289 39.0681C115.281 39.056 116.268 38.544 117.006 38.0352C117.006 38.0352 117.254 38.0322 117.251 37.7823C120.213 36.4966 121.418 33.4829 120.638 30.4934Z" fill="#E7E4E3"/>
<path d="M95.2973 90.0325C95.0223 87.7866 93.761 86.0526 92.2545 84.5715C91.2472 83.3342 89.7438 82.1032 88.2492 81.6216C86.7517 80.8901 85.2541 80.1586 83.5145 79.93C81.5268 79.7043 80.2834 79.4696 78.3046 79.9936C76.571 80.2646 75.3423 81.2792 73.8658 82.2969C71.9019 84.0703 70.9426 86.8311 70.9755 89.5797C70.9994 91.5788 71.5254 94.0715 72.7868 95.8055C73.7971 97.2926 74.8014 98.2801 76.55 99.2584C76.8011 99.5052 77.2974 99.499 77.5484 99.7459C77.7995 99.9927 78.0504 100.24 78.3015 100.487C80.0621 102.464 82.5552 103.434 85.0391 103.653C85.7863 103.894 86.5307 103.885 87.2749 103.876C88.5154 103.861 89.7526 103.596 90.736 102.834C91.2292 102.578 91.7197 102.072 92.2099 101.566C92.455 101.313 92.4549 101.313 92.7 101.06C93.9255 99.7959 94.6519 98.2876 94.879 96.5355C94.876 96.2856 95.1211 96.0326 95.1181 95.7827C95.8414 94.0244 95.8174 92.0255 95.2973 90.0325Z" fill="#E7E4E3"/>
<path d="M164.331 -9.02617C164.074 -9.77277 163.817 -10.5193 163.563 -11.0161C163.56 -11.2659 163.309 -11.5128 163.309 -11.5128C163.055 -12.0095 162.552 -12.5032 162.298 -12.9999L162.047 -13.2468C161.294 -13.9874 160.544 -14.4781 159.793 -14.9687C158.544 -15.7032 157.05 -16.1847 155.564 -15.9167C154.079 -15.6486 152.593 -15.3806 151.361 -14.6158C151.116 -14.3629 150.871 -14.11 150.378 -13.8541C150.133 -13.6012 149.64 -13.3453 149.395 -13.0924C148.905 -12.5866 148.417 -11.8308 147.927 -11.325C147.44 -10.5693 146.956 -9.56383 146.72 -8.5613C146.49 -7.05901 146.262 -5.30678 146.777 -3.81358C147.031 -3.31685 147.287 -2.57022 147.542 -2.07349C147.542 -2.07349 147.542 -2.07356 147.545 -1.82368C147.799 -1.32695 148.304 -0.583352 148.806 -0.089656C149.308 0.404039 150.058 0.894644 150.809 1.38531C151.556 1.6261 152.058 2.11992 152.802 2.11083C154.542 2.33951 155.286 2.33042 157.02 2.05934C158.015 2.2971 159.007 2.28499 159.997 2.02299C160.49 1.76706 160.983 1.51109 161.479 1.50504C161.972 1.2491 162.218 0.996136 162.708 0.490324C162.708 0.490324 162.705 0.240505 162.953 0.237476C163.198 -0.0154281 163.685 -0.771205 163.927 -1.27399C164.169 -1.77677 164.409 -2.52931 164.651 -3.03209C164.648 -3.28197 164.893 -3.53499 164.89 -3.78487C165.126 -4.78741 165.362 -5.78982 165.102 -6.7863C164.597 -7.52987 164.588 -8.27956 164.331 -9.02617Z" fill="#E7E4E3"/>
<path d="M41.202 65.4555C40.93 63.4595 40.667 62.2131 39.6537 60.4761C39.1485 59.7325 38.6434 58.989 38.1412 58.4953C37.8901 58.2484 37.6389 58.0016 37.3878 57.7547C35.8843 56.5235 34.6351 55.7891 32.8894 55.0607C32.6413 55.0637 32.3901 54.8168 32.142 54.8198C31.6458 54.8258 31.1468 54.5821 30.4025 54.5912C30.4025 54.5912 30.4023 54.5912 30.1542 54.5942C30.1542 54.5942 30.1542 54.5942 29.9061 54.5972C29.1618 54.6063 28.6628 54.3624 27.9186 54.3715C27.1743 54.3806 26.1849 54.6427 25.4406 54.6517C24.4512 54.9137 23.7127 55.4225 22.7233 55.6845L21.2497 56.9521C20.5144 57.7108 20.0273 58.4665 19.7911 59.469C19.549 59.9718 19.31 60.7245 19.316 61.2242C19.0799 62.2268 19.0918 63.2263 19.5999 64.2198C19.854 64.7165 20.1079 65.2132 20.362 65.7099C20.3679 66.2097 20.6253 66.9563 20.6312 67.4561L20.6342 67.706C20.8913 68.4526 21.1481 69.1992 21.6503 69.6929C21.6533 69.9428 21.9046 70.1897 21.9046 70.1897C22.4068 70.6834 22.6638 71.4298 23.166 71.9235L23.417 72.1705C24.6695 73.1549 26.1699 74.1362 27.6644 74.6178C28.4117 74.8586 29.4041 74.8464 30.1484 74.8373C30.6446 74.8312 31.6341 74.5693 32.1303 74.5633C32.1303 74.5633 32.1302 74.5633 32.3783 74.5602C33.1196 74.3013 34.3542 73.7864 34.3542 73.7864C34.3542 73.7864 34.3541 73.7864 34.6022 73.7834C35.3435 73.5244 36.3329 73.2623 37.0712 72.7535C38.3057 72.2386 39.283 70.9771 40.0153 69.9685C40.7447 68.7101 40.7328 67.7105 40.9659 66.4581L40.9629 66.2083C41.205 65.7055 41.205 65.7054 41.202 65.4555Z" fill="#E7E4E3"/>
<path d="M28.6288 23.4119C27.8606 21.422 26.3479 19.4411 24.3512 18.4659C22.1035 17.2437 19.8708 17.271 17.644 17.798C16.4065 18.0631 15.172 18.5779 14.1886 19.3397C11.4476 18.3735 8.22239 18.4129 5.75644 19.6926C4.27687 20.4604 2.80029 21.4781 2.07397 22.9864C0.860431 25.2505 0.890338 27.7492 2.1577 29.983C2.91992 31.4732 4.67168 32.7013 6.4143 33.1799C8.405 33.6554 10.6346 33.3783 12.3563 32.1078C12.8584 32.6015 13.3578 32.8452 14.105 33.086L14.108 33.3359C15.6295 36.0664 19.3627 37.0205 22.0827 36.2376C23.8163 35.9665 25.5411 34.9457 26.5155 33.4343C28.7184 30.9083 29.9111 26.8951 28.6288 23.4119Z" fill="#E7E4E3"/>
</svg>
