<svg width="75" height="75" viewBox="0 0 75 75" fill="none" xmlns="http://www.w3.org/2000/svg">
<path d="M67.0956 0H22.3656C18.2542 0 14.9106 3.34357 14.9106 7.455V52.185C14.9106 56.2964 18.2542 59.64 22.3656 59.64H67.0956C71.2071 59.64 74.5506 56.2964 74.5506 52.185V7.455C74.5506 3.34357 71.2071 0 67.0956 0ZM22.3656 52.185V7.455H67.0956L67.1031 52.185H22.3656Z" fill="#555555"/>
<path d="M7.455 25.215C7.455 23.641 6.17901 22.365 4.605 22.365H2.85C1.27599 22.365 0 23.641 0 25.215V67.095C0 71.2064 3.34357 74.55 7.455 74.55H49.335C50.909 74.55 52.185 73.274 52.185 71.7V69.945C52.185 68.371 50.909 67.095 49.335 67.095H10.305C8.73099 67.095 7.455 65.819 7.455 64.245V25.215ZM42.7506 33.0836C41.6778 34.3715 39.7307 34.46 38.5455 33.2748L36.3343 31.0637C35.2213 29.9507 33.4168 29.9507 32.3038 31.0637L31.0637 32.3038C29.9507 33.4168 29.9507 35.2213 31.0637 36.3343L39.0458 44.3165C40.2307 45.5014 42.1772 45.4133 43.2502 44.1262L60.6814 23.216C61.6893 22.007 61.5262 20.2098 60.3171 19.2019L58.9635 18.0736C57.7542 17.0656 55.9565 17.2291 54.9489 18.4388L42.7506 33.0836Z" fill="#555555"/>
</svg>
