<svg width="75" height="75" viewBox="0 0 75 75" fill="none" xmlns="http://www.w3.org/2000/svg">
<path d="M24.625 14.0625C24.625 16.8638 23.5122 19.5505 21.5313 21.5313C19.5505 23.5122 16.8638 24.625 14.0625 24.625C11.2612 24.625 8.57454 23.5122 6.59368 21.5313C4.61283 19.5505 3.5 16.8638 3.5 14.0625C3.5 11.2612 4.61283 8.57454 6.59368 6.59368C8.57454 4.61283 11.2612 3.5 14.0625 3.5C16.8638 3.5 19.5505 4.61283 21.5313 6.59369C23.5122 8.57454 24.625 11.2612 24.625 14.0625Z" stroke="#555555" stroke-width="7"/>
<path d="M42.1875 24.625C39.3862 24.625 36.6995 23.5122 34.7187 21.5313C32.7378 19.5505 31.625 16.8638 31.625 14.0625C31.625 11.2612 32.7378 8.57454 34.7187 6.59368C36.6995 4.61283 39.3862 3.5 42.1875 3.5C44.9888 3.5 47.6755 4.61283 49.6563 6.59368C51.6372 8.57454 52.75 11.2611 52.75 14.0625C52.75 16.8638 51.6372 19.5505 49.6563 21.5313C47.6755 23.5122 44.9888 24.625 42.1875 24.625Z" stroke="#555555" stroke-width="7"/>
<path d="M44.5312 31.625H44.5317C45.9566 31.6248 47.3331 32.1426 48.4047 33.0818C49.4763 34.021 50.1701 35.3177 50.3567 36.7304L50.97 41.3713L55.2479 39.4703L69.826 32.9922L69.8292 32.9908C70.01 32.9102 70.208 32.8761 70.4053 32.8916C70.6026 32.907 70.7929 32.9716 70.9589 33.0793L72.8641 30.1433L70.9589 33.0793C71.1249 33.187 71.2614 33.3345 71.3559 33.5084C71.4504 33.6823 71.4999 33.877 71.5 34.0749V69.0485C71.4998 69.2463 71.4503 69.4408 71.3559 69.6146L74.4309 71.286L71.3558 69.6146C71.2614 69.7883 71.1251 69.9357 70.9592 70.0434C70.7934 70.1511 70.6033 70.2157 70.4061 70.2313C70.209 70.2469 70.0111 70.213 69.8304 70.1327L69.8303 70.1327L55.2475 63.6545L50.9699 61.7543L50.3567 66.3946C50.1701 67.8073 49.4763 69.104 48.4047 70.0432C47.3331 70.9824 45.9566 71.5002 44.5317 71.5H44.5312H9.375C7.81685 71.5 6.32253 70.881 5.22075 69.7793L2.74587 72.2541L5.22075 69.7792C4.11897 68.6775 3.5 67.1831 3.5 65.625V37.5C3.5 35.9419 4.11897 34.4475 5.22075 33.3457C6.32252 32.244 7.81685 31.625 9.375 31.625H42.1875H44.5312Z" stroke="#555555" stroke-width="7"/>
</svg>
